<svg width="128" height="128" viewBox="0 0 128 128" fill="none" xmlns="http://www.w3.org/2000/svg">
<g clip-path="url(#clip0)">
<path d="M111.386 111.553H104.807C108.675 106.983 111.386 101.1 111.386 95.6629C111.386 89.0771 106.693 82.5877 101.208 80.5232V55.9485H111.386C115.722 55.9485 118.956 51.2552 118.068 46.3141C115.852 34.2092 108.592 24.1756 97.7741 24.1756V16.2341C87.5616 16.2341 81.9874 31.8006 78.7599 43.1141L64.8726 91.8986C64.8279 92.1297 64.7344 92.3486 64.5983 92.5407C64.4621 92.7327 64.2865 92.8934 64.0832 93.012C63.8799 93.1306 63.6535 93.2043 63.4194 93.2283C63.1852 93.2523 62.9486 93.226 62.7255 93.1511L59.4911 91.8986C59.0369 91.6826 58.6772 91.3082 58.4795 90.8457C58.2818 90.3832 58.2598 89.8644 58.4175 89.3868L65.7603 63.6079C75.8008 28.3666 54.8872 0.344238 36.5268 0.344238C21.5246 0.344238 9.34399 14.5688 9.34399 32.1171C9.34399 49.6655 21.5246 63.89 36.5268 63.89C36.5818 63.89 36.6369 63.89 36.6988 63.89C31.9611 71.2469 29.5355 79.8542 29.7345 88.6023C30.1406 110.548 46.7117 127.463 65.5195 127.463H114.765C116.644 127.463 118.172 125.681 118.172 123.486V119.515C118.172 115.131 115.123 111.573 111.365 111.573L111.386 111.553ZM101.215 36.0879C103.094 36.0879 104.615 37.8703 104.615 40.0586C104.615 42.247 103.059 44.0432 101.215 44.0432C99.3707 44.0432 97.7741 42.2539 97.7741 40.0586C97.7741 37.8634 99.3087 36.0879 101.215 36.0879Z" fill="url(#paint0_linear)" stroke="url(#paint1_linear)" stroke-miterlimit="10"/>
<path d="M111.235 55.5491C110.395 55.088 110.712 51.9982 112.047 49.5895C113.705 46.6029 116.864 44.8136 117.552 45.3435C117.683 45.4468 117.731 45.9147 117.828 46.8506C117.882 47.3073 117.905 47.7672 117.896 48.227C117.882 48.7966 117.813 49.3635 117.69 49.9199C117.452 50.9509 117.02 51.9271 116.417 52.7964C115.829 53.653 115.049 54.36 114.139 54.8609C113.528 55.2034 112.862 55.4363 112.171 55.5491C111.641 55.5973 111.393 55.6317 111.235 55.5491Z" fill="black"/>
</g>
<defs>
<title>silvain.eu</title>
<linearGradient id="paint0_linear" x1="9.34399" y1="63.89" x2="118.22" y2="63.89" gradientUnits="userSpaceOnUse">
<stop stop-color="#F39C12"/>
<stop offset="1" stop-color="#D35400"/>
</linearGradient>
<linearGradient id="paint1_linear" x1="8.99991" y1="63.89" x2="118.564" y2="63.89" gradientUnits="userSpaceOnUse">
<stop stop-color="white"/>
<stop offset="1" stop-color="white"/>
</linearGradient>
<clipPath id="clip0">
<rect width="110.108" height="128" fill="white" transform="translate(9)"/>
</clipPath>
</defs>
</svg>
