<svg width="300" height="300" viewBox="0 0 300 300" fill="none" xmlns="http://www.w3.org/2000/svg">
<path d="M77.186 98.1855V158.503H206.647V98.1855H77.186Z" fill="#34495E"/>
<ellipse cx="141.917" cy="158.552" rx="64.7307" ry="19.4682" fill="#34495E"/>
<rect x="72.9688" y="111.328" width="4.95288" height="24.225" rx="1.96807" fill="#F1C40F"/>
<rect x="69.6343" y="131.336" width="11.5731" height="15.4961" rx="4.92019" fill="#EED673"/>
<path d="M278.306 77.7565C281.916 79.5571 281.916 84.6452 278.306 86.4458C249.893 100.617 160.54 144.586 145.76 144.576C130.98 144.566 41.8094 100.61 13.455 86.4443C9.84886 84.6427 9.84886 79.5596 13.455 77.758C41.8094 63.592 130.98 19.6362 145.76 19.6262C160.54 19.6162 249.893 63.5858 278.306 77.7565Z" fill="#2C3E50"/>
<mask id="mask0_1262_1781" style="mask-type:alpha" maskUnits="userSpaceOnUse" x="10" y="19" width="272" height="126">
<path d="M278.306 77.7565C281.916 79.5571 281.916 84.6452 278.306 86.4458C249.893 100.617 160.54 144.586 145.76 144.576C130.98 144.566 41.8094 100.61 13.455 86.4443C9.84886 84.6427 9.84886 79.5596 13.455 77.758C41.8094 63.592 130.98 19.6362 145.76 19.6262C160.54 19.6162 249.893 63.5858 278.306 77.7565Z" fill="#2C3E50"/>
</mask>
<g mask="url(#mask0_1262_1781)">
<rect x="144.021" y="64.2373" width="4.80576" height="92.6879" rx="1.96807" transform="rotate(54.2923 144.021 64.2373)" fill="#F1C40F"/>
<rect x="138.092" y="60.23" width="15.4961" height="15.4961" rx="6.88826" fill="#EED673"/>
</g>
<path d="M143.346 163.466C93.1474 172.544 13.8101 180.313 13.8101 180.313L21.6203 223.502L29.4305 266.691C29.4305 266.691 106.464 246.182 156.663 237.104C206.862 228.027 286.199 220.257 286.199 220.257L278.389 177.068L270.579 133.88C270.579 133.88 193.545 154.388 143.346 163.466Z" fill="#FFF5CB"/>
<ellipse cx="21.5808" cy="223.559" rx="13.9759" ry="43.7913" transform="rotate(-10.2505 21.5808 223.559)" fill="#F1C40F"/>
<ellipse cx="278.411" cy="176.915" rx="13.9759" ry="43.7913" transform="rotate(-10.2505 278.411 176.915)" fill="#FFF5CB"/>
<path d="M116.552 167.832L143.346 163.466L169.971 158.172C169.971 158.172 178.693 179.945 181.346 194.618C183.999 209.29 183.456 232.739 183.456 232.739L156.662 237.105L130.037 242.399C130.037 242.399 131.36 218.851 128.699 204.138C126.039 189.426 116.552 167.832 116.552 167.832Z" fill="#C0392B"/>
<rect x="162.012" y="238.1" width="15.6923" height="39.2307" rx="4.92018" transform="rotate(-30.2505 162.012 238.1)" fill="#C0392B"/>
<rect x="146.562" y="235.439" width="15.6923" height="39.2307" rx="4.92019" transform="rotate(9.74951 146.562 235.439)" fill="#C0392B"/>
<circle cx="158.093" cy="216.215" r="30.5509" transform="rotate(-10.2505 158.093 216.215)" fill="#E74C3C"/>
</svg>
